<svg width="64" height="40" fill="none" xmlns="http://www.w3.org/2000/svg"><circle opacity=".201" cx="20" cy="20" r="20" fill="#000"/><path fill-rule="evenodd" clip-rule="evenodd" d="M45.475 13.694c3.3-.001 3.47-.001 3.641.01l.029.002.106.007-.631-1.579a6.415 6.415 0 0 0-5.984-4.055h-4.108l1.683 5.615h5.264zm-17.593 0 1.122-5.615H23.44a1.29 1.29 0 0 0-1.23.905l-1.324 4.24-.147.47h7.144zm7.954-5.615 1.683 5.615h-7.007l1.121-5.615h4.203zM27.65 20.583v-4.308h-7.646c-.005.321-.004 1.103-.004 3.106v.397h1.463a1.29 1.29 0 0 1 0 2.58H20v1.635a3.874 3.874 0 0 0 3.643 3.864 7.4 7.4 0 0 1 4.006-7.274zm33.603.423a1.29 1.29 0 0 0 1.288 1.352h1.445c-.164 2.225-1.57 4.193-3.6 5.05.13-4.212-3.255-7.63-7.385-7.63-4.316 0-7.761 3.718-7.357 8.086h-7.285c.43-4.655-3.503-8.531-8.131-8.046v-3.543h7.734v1.462a1.29 1.29 0 0 0 1.352 1.29c.693-.034 1.227-.631 1.227-1.326v-1.426h8.3l13.056.716a1.29 1.29 0 0 1 1.164.917l.196.648v.004c.164.54.281.93.367 1.218h-1.047c-.694 0-1.291.534-1.324 1.228zM52.3 31.94a4.816 4.816 0 0 0 5.111-2.84c1.39-3.176-.952-6.743-4.41-6.743-2.915 0-5.18 2.59-4.762 5.506a4.826 4.826 0 0 0 4.06 4.077zm-26.061-4.077a4.82 4.82 0 0 1 4.762-5.506c2.918 0 5.181 2.593 4.763 5.506a4.828 4.828 0 0 1-2.962 3.778 4.797 4.797 0 0 1-5.3-1.165 4.706 4.706 0 0 1-1.246-2.534c-.009-.051-.013-.08-.017-.08z" fill="#26B5C0"/></svg>